
<svg width="40" height="22" viewBox="0 0 40 22" fill="none" xmlns="http://www.w3.org/2000/svg">
<path d="M11.9613 0.195938C11.7568 0.298168 9.05623 2.49611 5.96377 5.07743C-0.152996 10.1804 0.000349568 10.0271 0.000349568 10.9045C0.000349568 11.782 -0.152996 11.6287 5.96377 16.7317C9.05623 19.313 11.7568 21.5109 11.9613 21.6131L12.3361 21.8091H24.5356C35.2101 21.8091 36.7861 21.792 37.2291 21.6813C38.6263 21.315 39.6401 20.216 39.9042 18.7933C40.0319 18.0862 40.0319 3.72288 39.9042 3.01579C39.6401 1.59308 38.6263 0.49411 37.2291 0.127785C36.7861 0.0170364 35.2101 -1.90735e-06 24.5356 -1.90735e-06H12.3361L11.9613 0.195938ZM21.4601 5.5545C21.7328 5.63117 22.0906 5.93786 23.1725 7.00276L24.5441 8.34879L25.8134 7.06239C26.5717 6.29567 27.2276 5.70784 27.4321 5.61413C28.5907 5.06891 29.9452 5.97194 29.9452 7.28389C29.9452 7.93987 29.7578 8.22952 28.3948 9.60111L27.0998 10.9045L28.3948 12.208C29.7663 13.5881 29.9452 13.8692 29.9452 14.5422C29.9367 15.8797 28.4885 16.7657 27.3213 16.1524C27.1936 16.0842 26.5205 15.4538 25.8134 14.7467L24.5441 13.4603L23.1725 14.8063C22.0906 15.8712 21.7328 16.1779 21.4601 16.2546C20.9234 16.4079 20.5656 16.3824 20.0715 16.1353C19.3048 15.7519 18.93 14.9511 19.1344 14.0992C19.2281 13.7073 19.3474 13.554 20.5997 12.2846L21.9713 10.9045L20.5997 9.51591C19.3474 8.25508 19.2281 8.10173 19.1344 7.70985C18.93 6.85793 19.3048 6.05713 20.0715 5.67377C20.5656 5.42671 20.9234 5.40115 21.4601 5.5545Z" fill="#898989"/>
</svg>