<svg width="48" height="48" viewBox="0 0 48 48" fill="none" xmlns="http://www.w3.org/2000/svg">
<path d="M22.2591 0.927738C12.7229 1.60844 4.5307 7.99228 1.54835 17.0897C0.268891 21.0175 0.0571813 25.4513 0.959248 29.5263C2.4136 36.0297 6.68461 41.7144 12.5849 44.9799C17.804 47.8683 24.1553 48.641 29.9635 47.0956C38.0821 44.934 44.4886 38.5317 46.6517 30.4185C48.8056 22.3329 46.4676 13.6586 40.5397 7.76231C36.3976 3.64133 31.2798 1.33248 25.4071 0.927738C23.8699 0.817352 23.8147 0.817352 22.2591 0.927738ZM15.5396 9.52845C15.9446 9.71242 16.4325 10.1448 18.0893 11.8005C20.4273 14.137 20.6298 14.4313 20.6298 15.5443C20.6298 16.5194 20.3445 17.0253 19.0926 18.2947C17.7579 19.6561 17.6475 19.9689 18.0893 21.3855C19.0834 24.5866 23.9804 29.3975 27.064 30.2254C27.6439 30.3725 28.4079 30.3909 28.7576 30.2621C28.8957 30.207 29.5124 29.6734 30.1199 29.0755C31.4086 27.8153 31.7584 27.6313 32.7985 27.6497C33.8755 27.6589 34.0872 27.8061 36.4436 30.161C37.7967 31.504 38.6067 32.387 38.7356 32.6538C39.0302 33.2241 39.0854 34.2084 38.8737 34.8707C38.7264 35.3122 38.5147 35.5606 36.9131 37.1795C34.9801 39.1388 34.7499 39.2952 33.6454 39.47C32.9366 39.5896 31.7768 39.4516 30.663 39.1296C25.6004 37.667 18.301 31.8719 13.5514 25.5341C11.6828 23.0504 10.0812 20.1805 9.39081 18.0924C8.89376 16.593 8.79251 16.0043 8.83853 14.928C8.89376 13.5758 9.00421 13.4011 10.8268 11.5613C11.6736 10.7059 12.5388 9.8872 12.7506 9.74002C13.5698 9.1697 14.5731 9.09612 15.5396 9.52845Z" fill="#01D666"/>
</svg>
