<svg width="28" height="34" viewBox="0 0 28 34" fill="none" xmlns="http://www.w3.org/2000/svg">
<path d="M3.43074 0.0723839C2.47404 0.34388 1.7048 1.11958 1.4527 2.07628C1.38805 2.309 1.3622 2.84552 1.3622 3.93797V5.47645H1.00667C0.586493 5.47645 0.256819 5.59927 0.108142 5.80613C-0.0276057 6.00005 -0.0276057 6.37498 0.108142 6.5689C0.314997 6.86625 0.53478 6.89857 2.15729 6.89857C3.57942 6.89857 3.68284 6.90504 3.83798 7.02786C4.08362 7.22178 4.17412 7.54499 4.0513 7.82295C3.90909 8.17202 3.76688 8.21727 2.70675 8.25606C1.76944 8.28838 1.75005 8.28838 1.57552 8.46938L1.39452 8.64391L1.37513 10.5185L1.35573 12.3931H0.93556C0.282676 12.3931 0.00471531 12.6194 0.00471531 13.143C0.00471531 13.3111 0.0564289 13.4274 0.192177 13.5632L0.379639 13.7506H1.94397C3.69577 13.7506 3.85738 13.7829 4.03837 14.1708C4.16766 14.4358 4.16766 14.4875 4.03837 14.7526C3.87677 15.0952 3.63113 15.1727 2.69382 15.1727C1.31695 15.1727 1.3622 15.1016 1.3622 17.4934V19.3098H0.870918C0.418424 19.3098 0.36671 19.3228 0.192177 19.4973C-0.11164 19.8076 -0.0469983 20.3376 0.327925 20.5574C0.483066 20.6544 0.728706 20.6673 2.04094 20.6673C3.76041 20.6673 3.88323 20.6932 4.0513 21.1004C4.17412 21.3784 4.08362 21.7016 3.83798 21.8955C3.68931 22.0119 3.57295 22.0248 2.83603 22.0248C1.8858 22.0248 1.62076 22.0959 1.46562 22.4062C1.38159 22.5678 1.3622 22.891 1.3622 24.3842V26.1619H1.00667C0.586493 26.1619 0.256819 26.2847 0.108142 26.4916C-0.0276057 26.6855 -0.0276057 27.0604 0.108142 27.2543C0.314997 27.5517 0.53478 27.584 2.15729 27.584C3.57942 27.584 3.68284 27.5905 3.83798 27.7133C4.08362 27.9072 4.17412 28.2304 4.0513 28.5084C3.90909 28.8575 3.76688 28.9027 2.70675 28.9415C1.76944 28.9738 1.75005 28.9738 1.57552 29.1548C1.40745 29.3164 1.39452 29.3811 1.36866 29.9305C1.35573 30.2537 1.38159 30.6804 1.42684 30.8808C1.65955 31.928 2.52575 32.7942 3.56002 33.0139C3.82506 33.0656 6.68223 33.0786 14.6784 33.0656L25.4413 33.0463L25.7839 32.904C26.5532 32.5938 27.2255 31.8698 27.4452 31.1135C27.5939 30.6286 27.5939 2.43182 27.4452 1.947C27.2255 1.19069 26.5532 0.466698 25.7839 0.156418L25.4413 0.0142059L14.5815 0.00127792C6.02288 -0.00518799 3.65699 0.00774002 3.43074 0.0723839ZM16.1006 9.78161C17.7295 10.2406 18.7897 11.8631 18.557 13.5502C18.4794 14.132 18.1239 14.9142 17.7166 15.3731C17.3934 15.7545 16.831 16.1294 16.3074 16.3169C14.0191 17.1508 11.5562 15.302 11.7243 12.878C11.8213 11.4882 12.6293 10.3892 13.9157 9.87857C14.6009 9.60061 15.3443 9.57475 16.1006 9.78161ZM16.4496 17.3383C17.29 17.4869 18.1691 17.7907 19.1323 18.2626C19.8369 18.6052 20.0761 18.7604 20.3993 19.0771C21.1103 19.7817 21.3689 20.5186 21.3236 21.6951C21.2978 22.4579 21.2267 22.6518 20.8388 23.0267C20.3993 23.4534 20.4962 23.4469 15.1697 23.4469C12.5259 23.4469 10.2634 23.4146 10.1277 23.3823C9.73333 23.2918 9.37134 23.0009 9.15156 22.6066C8.96409 22.264 8.95763 22.2187 8.96409 21.5077C8.97056 20.3764 9.26145 19.6589 9.98544 19.006C10.7353 18.3273 12.8297 17.4546 14.129 17.2865C14.6332 17.2219 15.939 17.2478 16.4496 17.3383Z" fill="#F8F8F8"/>
</svg>
