<svg width="34" height="34" viewBox="0 0 34 34" fill="none" xmlns="http://www.w3.org/2000/svg">
<path d="M15.2862 0.0321655C12.888 0.258411 11.0651 0.769081 9.07412 1.77103C6.44965 3.08327 4.01911 5.31341 2.42246 7.87323C1.26537 9.72199 0.425021 12.1073 0.0824185 14.499C-0.0274728 15.2618 -0.0274728 17.8087 0.0824185 18.5715C0.353915 20.4784 0.858122 22.1462 1.64675 23.7428C2.53235 25.5528 3.40502 26.7681 4.84007 28.2096C6.26866 29.6317 7.50332 30.5173 9.24219 31.3706C10.4575 31.9653 11.2396 32.2562 12.4743 32.5665C15.7064 33.381 18.9514 33.2258 22.1059 32.1075C23.0691 31.7649 24.7369 30.931 25.5966 30.3557C27.956 28.7849 29.9082 26.6194 31.1946 24.1307C32.3646 21.8812 32.9464 19.6445 33.0434 17.0847C33.1403 14.331 32.5715 11.7065 31.3433 9.23718C30.5417 7.62113 29.6432 6.34768 28.3827 5.04838C26.9864 3.6004 25.616 2.60491 23.7866 1.69993C21.8732 0.756153 20.0891 0.245483 17.9689 0.0515556C17.3095 -0.00662231 15.8163 -0.0195503 15.2862 0.0321655ZM16.9475 4.7381C17.2578 4.86738 17.4065 5.00313 17.5551 5.30049C17.6715 5.5332 17.678 5.76591 17.678 10.7951V16.0504L20.2378 18.6038C21.6728 20.0324 22.8364 21.2477 22.8881 21.364C23.1467 21.9523 22.8364 22.7086 22.2482 22.9284C22.0154 23.0189 21.6147 23.0189 21.382 22.9348C21.1428 22.8443 15.5577 17.2722 15.4414 17.0071C15.3638 16.8326 15.3509 15.8501 15.3509 11.17C15.3509 5.77237 15.3573 5.5332 15.4737 5.30049C15.7646 4.7381 16.3787 4.49892 16.9475 4.7381Z" fill="#F8F8F8"/>
</svg>
