<!-- <svg width="25" height="25" viewBox="0 0 35 35" fill="none" xmlns="http://www.w3.org/2000/svg">
<path d="M3.12545 2.76104L4.62851 1.45714C5.4611 0.627223 6.58874 0.161208 7.76431 0.161208C8.93988 0.161208 10.0675 0.627223 10.9001 1.45714C10.9445 1.50156 13.5967 4.94901 13.5967 4.94901C14.3843 5.77641 14.8229 6.87543 14.8213 8.01776C14.8197 9.16008 14.3781 10.2579 13.5881 11.0831L11.287 13.8141C12.2096 16.0433 13.5635 18.0684 15.271 19.7729C16.9785 21.4774 19.0059 22.8279 21.2367 23.7466L23.9591 21.4541C24.7842 20.6635 25.8822 20.2214 27.0249 20.2195C28.1675 20.2176 29.267 20.6562 30.0946 21.444C30.0946 21.444 33.5378 24.0991 33.5822 24.1435C34.405 24.961 34.8732 26.0695 34.8855 27.2293C34.8978 28.3891 34.4534 29.5072 33.6481 30.3421L32.2152 31.9898C20.9215 41.7246 0.120751 20.762 0.494729 9.09569C0.487901 7.91762 0.717172 6.75012 1.16901 5.66213C1.62084 4.57413 2.28608 3.58769 3.12545 2.76104Z" fill="#F6F6F6"/>
</svg> -->


<svg width="30" viewBox="0 0 565 597" fill="none" xmlns="http://www.w3.org/2000/svg">
<path d="M199.925 397.848C238.403 437.556 275.933 465.755 322.085 489.864C340.656 499.553 371.096 512.387 383.239 515.646C410.219 522.836 444.223 519.389 471.458 506.461C479.777 502.631 483.975 499.538 498.918 486.649C515.274 472.54 517.119 470.597 523.119 461.018C542.2 430.473 544.861 407.224 530.927 391.07C526.137 385.517 456.566 336.708 448.413 333.176C429.442 325.064 408.423 328.052 393.178 341.202C389.543 344.337 381.502 353.387 375.25 361.245C368.998 369.103 363.118 375.759 362.338 376.08C361.37 376.387 354.91 372.979 348.055 368.503C317.464 348.757 298.438 332.416 275.708 306.065C252.006 278.792 235.931 253.215 222.776 222.655C216.963 209.18 216.771 207.937 219.139 206.599C235.441 198.348 255.373 185.732 259.899 180.772C272.512 167.427 277.785 147.207 273.075 130.316C269.537 118.049 233.78 46.5876 227.335 39.1163C220.978 31.7462 208.45 26.0005 198.978 26.2471C184.589 26.5092 161.503 34.4488 145.164 44.4933C131.696 52.7644 112.967 70.8573 105.066 83.1315C92.2288 103.361 86.2512 120.315 83.8936 143.302C82.1402 160.662 83.9521 175.827 90.8582 201.389C103.458 248.453 123.383 293.599 149.293 333.231C164.494 356.568 184.009 381.642 199.925 397.848Z" fill="white"/>
</svg>
