<svg width="25" height="25" viewBox="0 0 35 35" fill="none" xmlns="http://www.w3.org/2000/svg">
<path d="M3.12545 2.76104L4.62851 1.45714C5.4611 0.627223 6.58874 0.161208 7.76431 0.161208C8.93988 0.161208 10.0675 0.627223 10.9001 1.45714C10.9445 1.50156 13.5967 4.94901 13.5967 4.94901C14.3843 5.77641 14.8229 6.87543 14.8213 8.01776C14.8197 9.16008 14.3781 10.2579 13.5881 11.0831L11.287 13.8141C12.2096 16.0433 13.5635 18.0684 15.271 19.7729C16.9785 21.4774 19.0059 22.8279 21.2367 23.7466L23.9591 21.4541C24.7842 20.6635 25.8822 20.2214 27.0249 20.2195C28.1675 20.2176 29.267 20.6562 30.0946 21.444C30.0946 21.444 33.5378 24.0991 33.5822 24.1435C34.405 24.961 34.8732 26.0695 34.8855 27.2293C34.8978 28.3891 34.4534 29.5072 33.6481 30.3421L32.2152 31.9898C20.9215 41.7246 0.120751 20.762 0.494729 9.09569C0.487901 7.91762 0.717172 6.75012 1.16901 5.66213C1.62084 4.57413 2.28608 3.58769 3.12545 2.76104Z" fill="#F6F6F6"/>
</svg>