<svg width="33" height="33" viewBox="0 0 33 33" fill="none" xmlns="http://www.w3.org/2000/svg">
<path d="M18.7412 0.322975C18.4281 0.0576037 18.0147 -0.0513384 17.6136 0.0226864C13.4921 0.797851 9.71119 3.23787 7.2391 6.71843H6.86692C3.0805 6.71983 0 9.85261 0 13.7033V19.297C0 23.1477 3.0805 26.2805 6.86692 26.2805H7.2391C9.71394 29.7653 13.4949 32.2067 17.6136 32.9763C17.696 32.9916 17.7798 33 17.8622 33C18.1808 33 18.4926 32.8869 18.7412 32.6774C19.0543 32.412 19.2356 32.0181 19.2356 31.6033V1.39703C19.2356 0.982214 19.0557 0.588347 18.7412 0.322975ZM32.5973 19.7021C33.1342 20.2482 33.1342 21.1309 32.5973 21.677C32.3294 21.9494 31.9779 22.0862 31.6263 22.0862C31.2747 22.0862 30.9231 21.9494 30.6553 21.677L27.5061 18.4744L24.357 21.677C24.0891 21.9494 23.7376 22.0862 23.386 22.0862C23.0344 22.0862 22.6828 21.9494 22.415 21.677C21.878 21.1309 21.878 20.2482 22.415 19.7021L25.5642 16.4995L22.415 13.2969C21.878 12.7507 21.878 11.868 22.415 11.3219C22.952 10.7758 23.82 10.7758 24.357 11.3219L27.5061 14.5245L30.6553 11.3219C31.1923 10.7758 32.0603 10.7758 32.5973 11.3219C33.1342 11.868 33.1342 12.7507 32.5973 13.2969L29.4481 16.4995L32.5973 19.7021Z" fill="white"/>
</svg>
