<svg width="33" height="33" viewBox="0 0 33 33" fill="none" xmlns="http://www.w3.org/2000/svg">
<path d="M16.5 0C7.40162 0 0 7.40162 0 16.5C0 25.5984 7.40162 33 16.5 33C25.5984 33 33 25.5984 33 16.5C33 7.40162 25.5984 0 16.5 0ZM16.5 28.875C9.67725 28.875 4.125 23.3228 4.125 16.5C4.125 9.67725 9.67725 4.125 16.5 4.125C23.3228 4.125 28.875 9.67725 28.875 16.5C28.875 23.3228 23.3228 28.875 16.5 28.875ZM15.125 13.0625V19.9375C15.125 21.0774 14.2024 22 13.0625 22C11.9226 22 11 21.0774 11 19.9375V13.0625C11 11.9226 11.9226 11 13.0625 11C14.2024 11 15.125 11.9226 15.125 13.0625ZM22 13.0625V19.9375C22 21.0774 21.0774 22 19.9375 22C18.7976 22 17.875 21.0774 17.875 19.9375V13.0625C17.875 11.9226 18.7976 11 19.9375 11C21.0774 11 22 11.9226 22 13.0625Z" fill="white"/>
</svg>
