<svg width="47" height="47" viewBox="0 0 47 47" fill="none" xmlns="http://www.w3.org/2000/svg">
<path d="M2.31003 21.6824C2.81666 21.6824 3.30253 21.4811 3.66077 21.1229C4.019 20.7647 4.22026 20.2788 4.22026 19.7722C4.22431 15.7204 5.83565 11.8358 8.70067 8.97074C11.5657 6.10571 15.4503 4.49437 19.5021 4.49032C20.0087 4.49032 20.4946 4.28907 20.8528 3.93083C21.2111 3.57259 21.4123 3.08672 21.4123 2.58009C21.4123 2.07347 21.2111 1.5876 20.8528 1.22936C20.4946 0.871121 20.0087 0.669865 19.5021 0.669865C14.4376 0.675427 9.58205 2.68977 6.00088 6.27094C2.41971 9.85211 0.405365 14.7076 0.399803 19.7722C0.399803 20.2788 0.601055 20.7647 0.95929 21.1229C1.31753 21.4811 1.80341 21.6824 2.31003 21.6824ZM8.04072 19.7722C8.04072 16.7324 9.24825 13.8172 11.3977 11.6677C13.5471 9.51832 16.4623 8.31078 19.5021 8.31078C20.0087 8.31078 20.4946 8.51204 20.8528 8.87027C21.2111 9.22851 21.4123 9.71439 21.4123 10.221C21.4123 10.7276 21.2111 11.2135 20.8528 11.5717C20.4946 11.93 20.0087 12.1312 19.5021 12.1312C17.4756 12.1312 15.5321 12.9363 14.0992 14.3692C12.6662 15.8022 11.8612 17.7457 11.8612 19.7722C11.8612 20.2788 11.6599 20.7647 11.3017 21.1229C10.9435 21.4811 10.4576 21.6824 9.95095 21.6824C9.44432 21.6824 8.95845 21.4811 8.60021 21.1229C8.24197 20.7647 8.04072 20.2788 8.04072 19.7722ZM3.87069 43.0082L2.13238 41.0044C1.02596 39.8944 0.404686 38.3911 0.404686 36.8238C0.404686 35.2566 1.02596 33.7533 2.13238 32.6433C2.1916 32.5841 6.78761 29.0482 6.78761 29.0482C7.89067 27.9982 9.35585 27.4136 10.8787 27.4157C12.4016 27.4178 13.8652 28.0066 14.9653 29.0597L18.6062 32.1275C21.5782 30.8975 24.2779 29.0925 26.5503 26.8162C28.8227 24.5398 30.623 21.837 31.8479 18.8629L28.7915 15.2335C27.7376 14.1335 27.1482 12.6697 27.1457 11.1463C27.1432 9.62297 27.7279 8.15725 28.7782 7.05385C28.7782 7.05385 32.3178 2.46357 32.377 2.40435C33.4669 1.3074 34.9446 0.683279 36.4909 0.666837C38.0371 0.650395 39.5277 1.24295 40.6407 2.31648L42.8375 4.22671C55.8156 19.2831 27.8689 47.0139 12.3158 46.5154C10.7453 46.5245 9.18879 46.2188 7.73831 45.6164C6.28783 45.0141 4.97275 44.1272 3.87069 43.0082Z" fill="#F6F6F6"/>
</svg>
