<svg width="37" height="38" viewBox="0 0 37 38" fill="none" xmlns="http://www.w3.org/2000/svg">
<path d="M32.2732 31.0997C37.1198 25.5075 38.1073 17.5272 34.757 10.9123C33.306 8.06076 30.9936 5.51655 28.268 3.77842C23.9101 1.01253 18.4589 0.236676 13.441 1.67756C9.0025 2.95218 5.10305 6.00524 2.77044 10.0306C-0.489176 15.6581 -0.489176 22.6711 2.77044 28.2986C6.01998 33.9059 12.0505 37.3771 18.5244 37.362C23.0486 37.352 27.1143 35.8154 30.5502 32.8228C31.452 32.0419 31.4823 32.0116 32.2732 31.0997ZM31.2404 22.7114C30.918 22.8323 30.4142 22.8625 28.6005 22.8625C26.0412 22.8625 25.7691 22.8122 25.1595 22.2026C24.6255 21.6685 24.5046 21.2352 24.4945 19.8548C24.4794 18.3787 24.3685 18.1469 23.3509 17.6129C21.0535 16.4038 15.7384 16.4491 13.5972 17.6834C13.1992 17.9202 12.771 18.3283 12.65 18.5903C12.6047 18.6961 12.5594 19.3258 12.5543 19.9858C12.5392 21.3814 12.4485 21.6736 11.8691 22.2328C11.2747 22.8172 11.0782 22.8525 8.4987 22.8525C7.02255 22.8575 6.09555 22.8172 5.87891 22.7416C5.40534 22.5905 4.83604 22.0816 4.58917 21.603C4.42796 21.2806 4.4078 21.0287 4.39773 19.2654C4.38261 17.1343 4.42292 16.9227 4.93176 16.2224C5.2542 15.769 5.96456 15.2097 6.7505 14.7765C10.3225 12.8066 17.4916 11.9854 23.5625 12.857C25.9454 13.1945 28.3939 13.8898 29.9154 14.6556C31.0087 15.2047 31.3865 15.4717 31.9508 16.0864C32.6612 16.8572 32.6964 17.0134 32.7065 19.0185C32.7115 19.9505 32.6864 20.8725 32.6511 21.069C32.5151 21.8297 32.0062 22.4192 31.2404 22.7114Z" fill="#F73438"/>
</svg>
