<svg width="28" height="28" viewBox="0 0 28 28" fill="none" xmlns="http://www.w3.org/2000/svg">
<path d="M14 10.4648L22.7315 1.7324L23.4386 2.43947L22.7315 1.73239C23.708 0.755853 25.2912 0.755895 26.2676 1.73236C27.2441 2.70883 27.2441 4.29202 26.2676 5.26848L26.2676 5.26852L17.5352 14L26.2676 22.7315L25.5605 23.4386L26.2676 22.7315C27.2441 23.7079 27.2441 25.2911 26.2676 26.2676L14 10.4648ZM14 10.4648L5.26851 1.7324L5.26848 1.73236C4.29201 0.755894 2.7088 0.755854 1.73234 1.73239C0.755987 2.70882 0.755818 4.29201 1.73239 5.26851L1.7324 5.26851L10.4648 14L1.7324 22.7315L1.73236 22.7315C0.755895 23.708 0.755853 25.2912 1.73239 26.2677C2.70882 27.244 4.29201 27.2442 5.26851 26.2676L4.5636 25.5628L5.26852 26.2676L14 17.5352L22.7314 26.2676L22.7315 26.2676C23.7079 27.2441 25.2911 27.2441 26.2676 26.2676L14 10.4648Z" fill="white" stroke="white" stroke-width="2"/>
</svg>
